<svg width="24" height="24" viewBox="0 0 24 24" fill="none" xmlns="http://www.w3.org/2000/svg">
<g id="bitcoin-logo" clip-path="url(#clip0_103_3111)">
<g id="Group">
<path id="Vector" d="M19.9879 12.591C19.4303 11.87 18.589 11.3748 17.4638 11.1056C18.8966 10.3748 19.5263 9.13434 19.3534 7.38413C19.2956 6.74947 19.1202 6.19942 18.8268 5.73319C18.5332 5.26685 18.137 4.89195 17.6366 4.60834C17.1367 4.32438 16.593 4.10821 16.0067 3.95918C15.4203 3.81015 14.747 3.70194 13.9874 3.6347V0H11.7664V3.53371C11.3818 3.53371 10.7953 3.54331 10.0069 3.56256V0H7.7856V3.6347C7.46819 3.64435 7.0019 3.64925 6.38654 3.64925L3.32886 3.6347V6.00018H4.92974C5.66054 6.00018 6.08843 6.32718 6.21341 6.98094V11.1205C6.3097 11.1205 6.38654 11.1255 6.44428 11.1351H6.21341V16.933C6.13657 17.4233 5.85776 17.6687 5.37693 17.6687H3.77615L3.32896 20.3082H6.21366C6.39639 20.3082 6.66065 20.3106 7.00695 20.315C7.35306 20.3198 7.61257 20.3223 7.7857 20.3223V24.0002H10.0073V20.3655C10.4111 20.3754 10.9976 20.3801 11.7669 20.3801V24.0002H13.9879V20.3223C14.7765 20.2839 15.476 20.2121 16.0863 20.106C16.6969 19.9999 17.2812 19.8343 17.8388 19.6081C18.3963 19.3823 18.8626 19.1009 19.2376 18.7643C19.6127 18.4281 19.9226 18 20.1682 17.4806C20.413 16.9613 20.5694 16.3603 20.6365 15.6775C20.7621 14.3413 20.5456 13.3123 19.9879 12.591ZM10.0501 6.1584C10.1174 6.1584 10.3073 6.15598 10.6198 6.15113C10.9325 6.14618 11.192 6.14143 11.3987 6.13658C11.6055 6.13183 11.8844 6.14385 12.2355 6.1727C12.5864 6.20154 12.882 6.24009 13.1224 6.28808C13.3627 6.33607 13.6273 6.41544 13.9156 6.52602C14.2043 6.63651 14.4349 6.77119 14.6078 6.92982C14.781 7.08845 14.9276 7.29047 15.0476 7.53569C15.1679 7.78085 15.228 8.06209 15.228 8.37934C15.228 8.64861 15.1848 8.89388 15.0984 9.11515C15.0121 9.33626 14.882 9.52141 14.7091 9.67044C14.5362 9.81952 14.3579 9.94946 14.1752 10.0599C13.9927 10.1704 13.7593 10.2594 13.4757 10.3267C13.1922 10.394 12.9446 10.4469 12.7332 10.4853C12.5216 10.5238 12.2573 10.5503 11.9399 10.5647C11.6225 10.579 11.3821 10.5888 11.2187 10.5936C11.0551 10.5983 10.8317 10.5983 10.5479 10.5936C10.2641 10.5888 10.0984 10.5863 10.0502 10.5863V6.15835H10.0501V6.1584ZM16.1153 15.9806C16.0237 16.2018 15.9061 16.3942 15.762 16.5578C15.6176 16.721 15.4276 16.8654 15.1922 16.9902C14.9567 17.1154 14.7281 17.2162 14.5072 17.2931C14.2859 17.3704 14.019 17.4373 13.7068 17.4952C13.3938 17.5529 13.12 17.5936 12.8842 17.6178C12.6487 17.6419 12.3676 17.661 12.0405 17.6755C11.7137 17.6897 11.4587 17.697 11.2761 17.697C11.0934 17.697 10.8626 17.6944 10.5837 17.6897C10.3047 17.6852 10.127 17.6828 10.05 17.6828V12.8075C10.1268 12.8075 10.3552 12.8028 10.7351 12.793C11.1151 12.7833 11.425 12.7788 11.6654 12.7788C11.9058 12.7788 12.2376 12.793 12.6609 12.822C13.0837 12.8507 13.4395 12.8938 13.7282 12.9515C14.0166 13.0093 14.3313 13.0981 14.6729 13.2184C15.0141 13.3385 15.2907 13.4851 15.5023 13.6582C15.7139 13.8316 15.8917 14.0524 16.0359 14.3217C16.1804 14.5909 16.2525 14.8986 16.2525 15.2449C16.2524 15.5144 16.2068 15.7592 16.1153 15.9806Z" fill="#F6543E"/>
</g>
</g>
<defs>
<clipPath id="clip0_103_3111">
<rect width="24" height="24" fill="white"/>
</clipPath>
</defs>
</svg>
