<svg width="86" height="39" viewBox="0 0 86 39" fill="none" xmlns="http://www.w3.org/2000/svg">
<g id="Group 17">
<path id="Vector" d="M3.84233 32.8846H1V37.5C1 38.0523 1.44772 38.5 2 38.5H84C84.5523 38.5 85 38.0523 85 37.5V2.99451L82.3733 6.31565C81.867 6.95587 80.8483 6.75251 80.6266 5.96694L79.5714 2.22837C79.4498 1.79753 79.0567 1.5 78.609 1.5H74.9171C74.6502 1.5 74.3943 1.60673 74.2065 1.79643L71.6615 4.36695C71.3667 4.66476 70.9174 4.74713 70.536 4.57327L68.1119 3.46808C67.5618 3.21728 66.9167 3.50822 66.7405 4.08656L64.5528 11.2677C64.3184 12.0372 63.3176 12.2291 62.8152 11.6009L61.012 9.34587C60.7315 8.99514 60.1827 9.05012 59.9773 9.44952C59.8035 9.78776 59.3687 9.89087 59.0614 9.66674L58.5007 9.25773C58.019 8.90635 57.3388 9.0519 57.0431 9.56964L55.4099 12.4289C55.1888 12.8159 54.7383 13.0099 54.3053 12.9046L52.8903 12.5605C52.3715 12.4344 51.8451 12.7381 51.6946 13.2504L49.0264 22.3332C48.9404 22.626 48.7254 22.8635 48.4425 22.9781L45.0997 24.3329C44.6318 24.5225 44.096 24.3336 43.8504 23.8926L41.8601 20.3189C41.4716 19.6212 40.4623 19.638 40.0971 20.3482L39.5936 21.3277C39.4785 21.5515 39.2833 21.7237 39.0469 21.81L36.79 22.6331C36.5063 22.7366 36.2846 22.9627 36.1867 23.2484L34.7204 27.5268C34.613 27.84 34.3576 28.0798 34.0382 28.1671L30.7804 29.0583C30.567 29.1167 30.379 29.2442 30.2458 29.4208L28.3723 31.9057C27.9911 32.4112 27.2421 32.4398 26.8235 31.9648L25.9047 30.9222C25.5748 30.5478 25.0194 30.474 24.6032 30.7491L19.4947 34.1248C19.152 34.3512 18.7058 34.3451 18.3694 34.1094L17.2075 33.295C16.8573 33.0496 16.3898 33.054 16.0443 33.306L14.8365 34.187C14.6654 34.3119 14.459 34.3791 14.2472 34.3791H10.8907C10.625 34.3791 10.3702 34.2734 10.1825 34.0852L7.17626 31.0698C6.75213 30.6444 6.05132 30.6863 5.68087 31.1592L4.62955 32.5013C4.44 32.7433 4.1497 32.8846 3.84233 32.8846Z" fill="url(#paint0_linear_103_3117)"/>
<path id="Vector_2" d="M1.5 32.8846H3.84236C4.14973 32.8846 4.44003 32.7433 4.62957 32.5013L5.6809 31.1592C6.05134 30.6863 6.75216 30.6444 7.17629 31.0698L10.1826 34.0852C10.3702 34.2734 10.625 34.3791 10.8907 34.3791H14.2472C14.4591 34.3791 14.6654 34.3119 14.8365 34.187L15.8853 33.422C16.3027 33.1175 16.8833 33.1811 17.2249 33.5687L18.2899 34.7773C18.6455 35.1807 19.2564 35.2307 19.6729 34.8905L24.5833 30.8787C24.9997 30.5385 25.6107 30.5885 25.9662 30.992L26.8236 31.9648C27.2421 32.4398 27.9911 32.4112 28.3723 31.9057L30.2458 29.4208C30.379 29.2442 30.567 29.1167 30.7804 29.0583L34.0383 28.1671C34.3576 28.0798 34.6131 27.84 34.7204 27.5268L36.1867 23.2484C36.2846 22.9627 36.5063 22.7366 36.79 22.6331L39.0469 21.81C39.2833 21.7237 39.4786 21.5515 39.5936 21.3277L40.0972 20.3482C40.4623 19.638 41.4716 19.6212 41.8602 20.3189L43.8505 23.8926C44.0961 24.3336 44.6319 24.5225 45.0997 24.3329L48.4426 22.9781C48.7254 22.8635 48.9404 22.626 49.0264 22.3332L51.6946 13.2504C51.8451 12.7381 52.3715 12.4344 52.8903 12.5605L54.3053 12.9046C54.7384 13.0099 55.1889 12.8159 55.4099 12.4289L57.0431 9.56964C57.3388 9.0519 58.0191 8.90635 58.5008 9.25773L59.0615 9.66674C59.3687 9.89087 59.8035 9.78775 59.9774 9.44952V9.44952C60.1827 9.05012 60.7315 8.99514 61.012 9.34587L62.8153 11.6009C63.3176 12.2291 64.3184 12.0372 64.5529 11.2677L66.7405 4.08657C66.9167 3.50822 67.5618 3.21728 68.1119 3.46808L70.5361 4.57327C70.9174 4.74713 71.3667 4.66476 71.6615 4.36695L74.2065 1.79643C74.3944 1.60673 74.6502 1.5 74.9172 1.5H78.6091C79.0567 1.5 79.4499 1.79753 79.5715 2.22837L80.6171 5.93313C80.8406 6.72503 81.8715 6.92316 82.3726 6.27053L84.5 3.5" stroke="#F6543E" stroke-width="2" stroke-linecap="round"/>
</g>
<defs>
<linearGradient id="paint0_linear_103_3117" x1="43" y1="1.5" x2="43" y2="38.5" gradientUnits="userSpaceOnUse">
<stop stop-color="#F6543E" stop-opacity="0.2"/>
<stop offset="1" stop-color="#F6543E" stop-opacity="0"/>
</linearGradient>
</defs>
</svg>
